<svg xmlns="http://www.w3.org/2000/svg" width="84.595" height="84.595" viewBox="0 0 84.595 84.595"><path d="M32.109,168.658V141.065a16.612,16.612,0,0,1,16.626-16.522H39.152A16.522,16.522,0,0,0,22.63,141.065v27.592A16.522,16.522,0,0,0,39.152,185.18h9.583A16.612,16.612,0,0,1,32.109,168.658Z" transform="translate(-18.891 -103.965)" fill="#f6bba8"/><path d="M29.906,174.751H19.827A19.849,19.849,0,0,1,0,154.924v-27.1A19.849,19.849,0,0,1,19.827,108H64.768a19.849,19.849,0,0,1,19.827,19.827v9.913a3.3,3.3,0,1,1-6.609,0v-9.913a13.233,13.233,0,0,0-13.218-13.218H19.827A13.233,13.233,0,0,0,6.609,127.827v27.1a13.233,13.233,0,0,0,13.218,13.218H29.906a3.3,3.3,0,1,1,0,6.609Zm54.689-10.079v-8.728a10.119,10.119,0,0,0-10.108-10.108H65.759a3.3,3.3,0,1,0,0,6.609h8.728a3.5,3.5,0,0,1,3.5,3.5v8.728a3.3,3.3,0,0,0,6.609,0ZM73.1,162.657a3.3,3.3,0,0,0-4.78-4.564,32.631,32.631,0,0,1-23.492,10.049H43.289a3.3,3.3,0,1,0,0,6.609h1.544A39.27,39.27,0,0,0,73.1,162.657Zm-51.46-39.126a4.131,4.131,0,1,0,4.131,4.131A4.131,4.131,0,0,0,21.644,123.531Zm14.209,0a4.131,4.131,0,1,0,4.131,4.131A4.131,4.131,0,0,0,35.854,123.531Zm14.209,0a4.131,4.131,0,1,0,4.131,4.131A4.131,4.131,0,0,0,50.063,123.531ZM21.644,137.74a4.131,4.131,0,1,0,4.131,4.131A4.131,4.131,0,0,0,21.644,137.74Zm0,14.209a4.131,4.131,0,1,0,4.131,4.131A4.131,4.131,0,0,0,21.644,151.95ZM35.854,137.74a4.131,4.131,0,1,0,4.131,4.131A4.131,4.131,0,0,0,35.854,137.74Zm0,14.209a4.131,4.131,0,1,0,4.131,4.131A4.131,4.131,0,0,0,35.854,151.95ZM50.063,137.74a4.131,4.131,0,1,0,4.131,4.131A4.131,4.131,0,0,0,50.063,137.74Z" transform="translate(0 -90.156)" fill="#e95425"/><path d="M98.522,13.218a3.3,3.3,0,0,1-3.3-3.3,3.3,3.3,0,0,0-6.609,0,3.3,3.3,0,0,1-6.609,0,9.913,9.913,0,1,1,19.827,0A3.3,3.3,0,0,1,98.522,13.218Zm41.306-3.3a9.913,9.913,0,1,0-19.827,0,3.3,3.3,0,1,0,6.609,0,3.3,3.3,0,1,1,6.609,0,3.3,3.3,0,1,0,6.609,0Zm-7.1,23.462a4.131,4.131,0,1,0,4.131,4.131A4.131,4.131,0,0,0,132.724,33.375Z" transform="translate(-68.452)" fill="#f6bba8"/></svg>