<svg xmlns="http://www.w3.org/2000/svg" width="86.551" height="86.534" viewBox="0 0 86.551 86.534"><g transform="translate(0 -0.05)"><path d="M52.435,90.939l-7.574,3.946A8.957,8.957,0,0,1,31.84,85.51l2.054-11.87a8.843,8.843,0,0,0-2.581-7.871l-8.7-8.407a8.872,8.872,0,0,1,4.974-15.169l12.027-1.732A8.969,8.969,0,0,0,46.368,35.6l5.379-10.8a9.01,9.01,0,0,1,16.094,0l2.714,5.45c-1.443.389-2.557.173-3.153-1.023-1.944-3.72-6.425-1.268-7.609,2.171L55.449,40.12A19.113,19.113,0,0,1,41.057,50.5l-6.888.992a1.305,1.305,0,0,0-.721,2.231l4.914,4.746a18.978,18.978,0,0,1,5.529,16.9L42.258,84.8c-.64,3.854,2.065,7.62,5.954,5.591a3.223,3.223,0,0,1,4.223.547ZM87.551,67.352a8.783,8.783,0,0,1,3.889-7.3,8.792,8.792,0,1,0,0,14.6,8.783,8.783,0,0,1-3.889-7.3Z" transform="translate(-16.528 -16.444)" fill="#f6bba8"/><path d="M24.144,82.859c-7.409.123-13.6-7.009-12.164-14.369l2.054-11.87a5.463,5.463,0,0,0-1.6-4.862l-8.7-8.407C-3.624,36.362.541,23.745,10.575,22.4L22.6,20.671a5.585,5.585,0,0,0,4.212-3.025l5.379-10.8c4.408-9.063,17.743-9.059,22.149,0l5.379,10.8a5.585,5.585,0,0,0,4.212,3.025L75.958,22.4a12.218,12.218,0,0,1,10.5,10.669,3.382,3.382,0,0,1-6.711.842A5.529,5.529,0,0,0,74.994,29.1L62.967,27.365a12.35,12.35,0,0,1-9.3-6.7l-5.379-10.8a5.64,5.64,0,0,0-10.041,0l-5.379,10.8a12.349,12.349,0,0,1-9.3,6.7L11.538,29.1a5.463,5.463,0,0,0-4.521,3.782,5.36,5.36,0,0,0,1.415,5.607l8.7,8.407A12.22,12.22,0,0,1,20.7,57.773l-2.054,11.87a5.587,5.587,0,0,0,8.126,5.8l10.757-5.6a12.547,12.547,0,0,1,6.2-1.512,15.238,15.238,0,0,1,2.352.43,3.382,3.382,0,0,1-1.531,6.588c-.172-.04-.988-.251-1.086-.26a5.8,5.8,0,0,0-2.808.753L29.9,81.44a12.435,12.435,0,0,1-5.752,1.418ZM82.155,50.908A12.188,12.188,0,0,0,69.981,38.734c-16.151.669-16.145,23.682,0,24.348A12.187,12.187,0,0,0,82.155,50.908Zm-6.763,0A5.411,5.411,0,1,1,69.981,45.5,5.417,5.417,0,0,1,75.392,50.908Z" transform="translate(0 0)" fill="#e95425"/><path d="M342.326,418.038a3.382,3.382,0,0,1-3.382-3.382,8.981,8.981,0,0,0-9-8.943h-2.293a8.981,8.981,0,0,0-9,8.943,3.382,3.382,0,0,1-6.763,0,15.752,15.752,0,0,1,15.762-15.706h2.293a15.752,15.752,0,0,1,15.762,15.706A3.382,3.382,0,0,1,342.326,418.038Z" transform="translate(-259.156 -331.455)" fill="#f6bba8"/></g></svg>