<svg xmlns="http://www.w3.org/2000/svg" width="77" height="77" viewBox="0 0 77 77"><path d="M28.023,216.525V200.17a15.192,15.192,0,0,1,2.857-8.868v-5.838A15.044,15.044,0,0,0,19,200.17v16.355a15.039,15.039,0,0,0,15.039,15.039l7.829-.047A15.04,15.04,0,0,1,28.023,216.525Z" transform="translate(-16.143 -157.572)" fill="rgba(233,84,37,0.4)"/><path d="M58.953,77H18.047A18.067,18.067,0,0,1,0,58.953V40.906A15.044,15.044,0,0,1,4.311,30.291a14.68,14.68,0,0,1,7.57-4.123V18.047A18.067,18.067,0,0,1,29.928,0H58.953A18.067,18.067,0,0,1,77,18.047V58.953A18.067,18.067,0,0,1,58.953,77ZM11.881,32.4a8.906,8.906,0,0,0-5.865,8.511V58.953A12.045,12.045,0,0,0,18.047,70.985H58.953A12.045,12.045,0,0,0,70.985,58.953V18.047A12.045,12.045,0,0,0,58.953,6.016H29.928A12.045,12.045,0,0,0,17.9,18.047V59.555a3.008,3.008,0,0,1-6.016,0Zm53.088-13a3.008,3.008,0,0,0-3.008-3.008H26.92a3.008,3.008,0,0,0,0,6.016H61.961A3.008,3.008,0,0,0,64.969,19.4Zm.15,28.123a3.008,3.008,0,0,0-3.008-3.008H50.381a3.008,3.008,0,1,0,0,6.016H62.112A3.008,3.008,0,0,0,65.119,47.524Zm-23.611,0A3.008,3.008,0,0,0,38.5,44.516H26.92a3.008,3.008,0,0,0,0,6.016H38.5A3.008,3.008,0,0,0,41.508,47.524Zm0,12.031A3.008,3.008,0,0,0,38.5,56.547H26.92a3.008,3.008,0,1,0,0,6.016H38.5A3.008,3.008,0,0,0,41.508,59.555Zm17.445,0a3.008,3.008,0,0,0-3.008-3.008H50.381a3.008,3.008,0,1,0,0,6.016h5.564A3.008,3.008,0,0,0,58.953,59.555Z" transform="translate(0 0)" fill="#e95425"/><path d="M197.2,216.068H175.393a3.008,3.008,0,0,1,0-6.016H197.2a3.008,3.008,0,0,1,0,6.016ZM159,212.76a3.76,3.76,0,1,0,3.76-3.76A3.76,3.76,0,0,0,159,212.76Z" transform="translate(-135.088 -177.568)" fill="#f6bba8"/></svg>